STARTFONT 2.1
COMMENT
COMMENT Converted from OpenType font "manrope-light.otf" by "otf2bdf 3.0".
COMMENT
FONT -FreeType-Manrope Light-Medium-R-Normal--22-160-100-100-P-98-ISO10646-1
SIZE 16 100 100
FONTBOUNDINGBOX 20 27 0 -5
STARTPROPERTIES 19
FOUNDRY "FreeType"
FAMILY_NAME "Manrope Light"
WEIGHT_NAME "Medium"
SLANT "R"
SETWIDTH_NAME "Normal"
ADD_STYLE_NAME ""
PIXEL_SIZE 22
POINT_SIZE 160
RESOLUTION_X 100
RESOLUTION_Y 100
SPACING "P"
AVERAGE_WIDTH 98
CHARSET_REGISTRY "ISO10646"
CHARSET_ENCODING "1"
FONT_ASCENT 23
FONT_DESCENT 6
COPYRIGHT "Copyright 2019-2021 The Manrope Project Authors (https://github.com/sharanda/manrope)"
_OTF_FONTFILE "manrope-light.otf"
_OTF_PSNAME "Manrope-Light"
ENDPROPERTIES
CHARS 191
STARTCHAR 0020
ENCODING 32
SWIDTH 180 0
DWIDTH 4 0
BBX 0 0 0 0
BITMAP
ENDCHAR
STARTCHAR 0021
ENCODING 33
SWIDTH 315 0
DWIDTH 7 0
BBX 1 16 3 0
BITMAP
80
80
80
80
80
80
80
80
80
80
80
80
00
00
80
80
ENDCHAR
STARTCHAR 0022
ENCODING 34
SWIDTH 360 0
DWIDTH 8 0
BBX 5 4 1 12
BITMAP
C8
C8
C8
C8
ENDCHAR
STARTCHAR 0023
ENCODING 35
SWIDTH 900 0
DWIDTH 20 0
BBX 18 16 1 0
BITMAP
008400
008400
018400
010C00
010800
3FFFC0
030800
021800
021000
061000
FFFF00
043000
042000
0C2000
086000
084000
ENDCHAR
STARTCHAR 0024
ENCODING 36
SWIDTH 585 0
DWIDTH 13 0
BBX 11 20 1 -2
BITMAP
0400
0400
1F00
7180
4040
C060
C020
4000
7000
1E00
03C0
0060
0020
0020
8020
C060
70C0
1F00
0400
0400
ENDCHAR
STARTCHAR 0025
ENCODING 37
SWIDTH 900 0
DWIDTH 20 0
BBX 18 16 1 0
BITMAP
3C0080
620100
410200
C10400
C10800
411000
622000
3C4000
008000
011F00
023180
0420C0
0820C0
102080
203180
400F00
ENDCHAR
STARTCHAR 0026
ENCODING 38
SWIDTH 630 0
DWIDTH 14 0
BBX 13 16 1 0
BITMAP
1F00
3180
6040
4000
4000
6000
3000
1800
6C00
4620
C320
80A0
C060
4060
70D0
1F08
ENDCHAR
STARTCHAR 0027
ENCODING 39
SWIDTH 180 0
DWIDTH 4 0
BBX 2 4 1 12
BITMAP
C0
C0
C0
C0
ENDCHAR
STARTCHAR 0028
ENCODING 40
SWIDTH 405 0
DWIDTH 9 0
BBX 5 22 3 -4
BITMAP
08
10
30
20
60
40
40
C0
80
80
80
80
80
C0
40
40
40
20
20
10
18
08
ENDCHAR
STARTCHAR 0029
ENCODING 41
SWIDTH 405 0
DWIDTH 9 0
BBX 5 22 1 -4
BITMAP
C0
40
20
20
10
10
18
08
08
08
08
08
08
08
18
10
10
30
20
60
40
80
ENDCHAR
STARTCHAR 002A
ENCODING 42
SWIDTH 450 0
DWIDTH 10 0
BBX 7 7 1 9
BITMAP
10
10
96
7C
38
68
44
ENDCHAR
STARTCHAR 002B
ENCODING 43
SWIDTH 585 0
DWIDTH 13 0
BBX 11 10 1 3
BITMAP
0400
0400
0400
0400
FFE0
0400
0400
0400
0400
0400
ENDCHAR
STARTCHAR 002C
ENCODING 44
SWIDTH 270 0
DWIDTH 6 0
BBX 2 4 1 -2
BITMAP
C0
C0
40
C0
ENDCHAR
STARTCHAR 002D
ENCODING 45
SWIDTH 405 0
DWIDTH 9 0
BBX 7 1 1 7
BITMAP
FE
ENDCHAR
STARTCHAR 002E
ENCODING 46
SWIDTH 225 0
DWIDTH 5 0
BBX 1 2 2 0
BITMAP
80
80
ENDCHAR
STARTCHAR 002F
ENCODING 47
SWIDTH 360 0
DWIDTH 8 0
BBX 6 16 1 0
BITMAP
0C
0C
08
08
18
10
10
10
30
20
20
20
60
40
40
C0
ENDCHAR
STARTCHAR 0030
ENCODING 48
SWIDTH 585 0
DWIDTH 13 0
BBX 10 16 2 0
BITMAP
3E00
6300
C180
8080
80C0
80C0
80C0
80C0
80C0
80C0
80C0
80C0
8080
C180
6300
3E00
ENDCHAR
STARTCHAR 0031
ENCODING 49
SWIDTH 360 0
DWIDTH 8 0
BBX 5 16 1 0
BITMAP
18
78
D8
18
18
18
18
18
18
18
18
18
18
18
18
18
ENDCHAR
STARTCHAR 0032
ENCODING 50
SWIDTH 540 0
DWIDTH 12 0
BBX 10 16 1 0
BITMAP
1F00
3180
40C0
C040
C040
0040
0040
00C0
0180
0300
0600
0C00
1800
2000
C000
FFC0
ENDCHAR
STARTCHAR 0033
ENCODING 51
SWIDTH 540 0
DWIDTH 12 0
BBX 10 16 1 0
BITMAP
7FC0
0080
0100
0600
0C00
1800
3E00
0380
0080
00C0
00C0
00C0
80C0
C080
6300
3E00
ENDCHAR
STARTCHAR 0034
ENCODING 52
SWIDTH 585 0
DWIDTH 13 0
BBX 11 16 1 0
BITMAP
0600
0400
0C00
0800
1800
1000
1000
2080
2080
6080
4080
C080
FFE0
0080
0080
0080
ENDCHAR
STARTCHAR 0035
ENCODING 53
SWIDTH 585 0
DWIDTH 13 0
BBX 11 16 1 0
BITMAP
7FC0
4000
4000
4000
4000
4000
5F00
6180
4040
0040
0060
0060
C040
40C0
3180
1F00
ENDCHAR
STARTCHAR 0036
ENCODING 54
SWIDTH 630 0
DWIDTH 14 0
BBX 10 16 2 0
BITMAP
1E00
7380
C080
8000
8000
8000
BF00
E180
C0C0
8040
8040
8040
8040
C0C0
6380
1E00
ENDCHAR
STARTCHAR 0037
ENCODING 55
SWIDTH 495 0
DWIDTH 11 0
BBX 9 16 1 0
BITMAP
FF80
0180
0100
0100
0200
0200
0600
0400
0C00
0800
0800
1800
1000
3000
2000
2000
ENDCHAR
STARTCHAR 0038
ENCODING 56
SWIDTH 585 0
DWIDTH 13 0
BBX 10 16 1 0
BITMAP
1F00
3180
40C0
4040
4040
40C0
3180
3F00
6180
40C0
C040
C040
C040
40C0
7180
1F00
ENDCHAR
STARTCHAR 0039
ENCODING 57
SWIDTH 630 0
DWIDTH 14 0
BBX 11 16 1 0
BITMAP
0F00
31C0
6040
4020
4020
C020
4020
6060
30E0
1F20
0020
0020
0020
6040
31C0
1F00
ENDCHAR
STARTCHAR 003A
ENCODING 58
SWIDTH 270 0
DWIDTH 6 0
BBX 2 8 2 2
BITMAP
C0
C0
00
00
00
00
C0
C0
ENDCHAR
STARTCHAR 003B
ENCODING 59
SWIDTH 315 0
DWIDTH 7 0
BBX 2 14 2 -2
BITMAP
C0
C0
00
00
00
00
00
00
00
00
C0
C0
40
40
ENDCHAR
STARTCHAR 003C
ENCODING 60
SWIDTH 585 0
DWIDTH 13 0
BBX 6 10 3 2
BITMAP
04
08
10
20
40
C0
60
30
18
0C
ENDCHAR
STARTCHAR 003D
ENCODING 61
SWIDTH 765 0
DWIDTH 17 0
BBX 11 4 3 6
BITMAP
FFE0
0000
0000
FFE0
ENDCHAR
STARTCHAR 003E
ENCODING 62
SWIDTH 585 0
DWIDTH 13 0
BBX 6 10 4 2
BITMAP
40
60
30
18
0C
0C
18
30
60
C0
ENDCHAR
STARTCHAR 003F
ENCODING 63
SWIDTH 495 0
DWIDTH 11 0
BBX 9 16 1 0
BITMAP
3E00
6300
C080
8080
0080
0080
0180
0300
0C00
0800
0800
0800
0000
0000
0800
0800
ENDCHAR
STARTCHAR 0040
ENCODING 64
SWIDTH 900 0
DWIDTH 20 0
BBX 16 16 2 -2
BITMAP
07F0
181C
3006
6002
4003
83E1
8661
8421
8421
8421
87F2
C19E
6000
3000
1810
07E0
ENDCHAR
STARTCHAR 0041
ENCODING 65
SWIDTH 630 0
DWIDTH 14 0
BBX 12 16 1 0
BITMAP
0600
0600
0F00
0900
0900
1180
1080
3080
20C0
2040
6040
7FE0
4020
C020
8030
8010
ENDCHAR
STARTCHAR 0042
ENCODING 66
SWIDTH 585 0
DWIDTH 13 0
BBX 11 16 2 0
BITMAP
FF00
8180
80C0
8040
8040
80C0
8180
FF00
81C0
8040
8060
8060
8060
8040
81C0
FF80
ENDCHAR
STARTCHAR 0043
ENCODING 67
SWIDTH 720 0
DWIDTH 16 0
BBX 14 16 1 0
BITMAP
0FC0
3870
6018
4008
C00C
8000
8000
8000
8000
8000
8000
C00C
4008
6018
3870
0FC0
ENDCHAR
STARTCHAR 0044
ENCODING 68
SWIDTH 675 0
DWIDTH 15 0
BBX 12 16 2 0
BITMAP
FF00
8180
8040
8060
8020
8030
8030
8030
8030
8030
8030
8020
8060
8040
8180
FF00
ENDCHAR
STARTCHAR 0045
ENCODING 69
SWIDTH 585 0
DWIDTH 13 0
BBX 9 16 2 0
BITMAP
FF80
8000
8000
8000
8000
8000
8000
FF00
8000
8000
8000
8000
8000
8000
8000
FF80
ENDCHAR
STARTCHAR 0046
ENCODING 70
SWIDTH 495 0
DWIDTH 11 0
BBX 9 16 2 0
BITMAP
FF80
8000
8000
8000
8000
8000
8000
8000
FE00
8000
8000
8000
8000
8000
8000
8000
ENDCHAR
STARTCHAR 0047
ENCODING 71
SWIDTH 675 0
DWIDTH 15 0
BBX 14 16 1 0
BITMAP
0FC0
3860
6010
4018
C000
8000
8000
8000
80FC
800C
800C
C008
4008
6010
3870
0FC0
ENDCHAR
STARTCHAR 0048
ENCODING 72
SWIDTH 675 0
DWIDTH 15 0
BBX 11 16 2 0
BITMAP
8020
8020
8020
8020
8020
8020
8020
8020
FFE0
8020
8020
8020
8020
8020
8020
8020
ENDCHAR
STARTCHAR 0049
ENCODING 73
SWIDTH 225 0
DWIDTH 5 0
BBX 1 16 2 0
BITMAP
80
80
80
80
80
80
80
80
80
80
80
80
80
80
80
80
ENDCHAR
STARTCHAR 004A
ENCODING 74
SWIDTH 450 0
DWIDTH 10 0
BBX 8 16 0 0
BITMAP
01
01
01
01
01
01
01
01
01
01
01
01
01
C1
66
3C
ENDCHAR
STARTCHAR 004B
ENCODING 75
SWIDTH 585 0
DWIDTH 13 0
BBX 10 16 2 0
BITMAP
80C0
8180
8300
8600
8C00
9800
B000
E000
A000
9000
8800
8400
8200
8100
8080
8040
ENDCHAR
STARTCHAR 004C
ENCODING 76
SWIDTH 495 0
DWIDTH 11 0
BBX 9 16 2 0
BITMAP
8000
8000
8000
8000
8000
8000
8000
8000
8000
8000
8000
8000
8000
8000
8000
FF80
ENDCHAR
STARTCHAR 004D
ENCODING 77
SWIDTH 855 0
DWIDTH 19 0
BBX 15 16 2 0
BITMAP
8002
8006
C006
C00E
A00A
A01A
B012
9032
9822
8862
8C42
8442
8682
8282
8302
8102
ENDCHAR
STARTCHAR 004E
ENCODING 78
SWIDTH 675 0
DWIDTH 15 0
BBX 11 16 2 0
BITMAP
8020
C020
E020
A020
B020
9820
8820
8C20
8620
8220
8320
81A0
80A0
80E0
8060
8020
ENDCHAR
STARTCHAR 004F
ENCODING 79
SWIDTH 720 0
DWIDTH 16 0
BBX 14 16 1 0
BITMAP
0FC0
3870
6018
4008
C00C
8004
8004
8004
8004
8004
8004
C00C
4008
6018
3870
0FC0
ENDCHAR
STARTCHAR 0050
ENCODING 80
SWIDTH 585 0
DWIDTH 13 0
BBX 10 16 2 0
BITMAP
FF00
8180
80C0
8040
8040
8040
8040
80C0
8180
FF00
8000
8000
8000
8000
8000
8000
ENDCHAR
STARTCHAR 0051
ENCODING 81
SWIDTH 720 0
DWIDTH 16 0
BBX 14 16 1 0
BITMAP
0FC0
3870
6018
4008
C00C
8004
8004
8004
8004
8004
8004
C04C
4028
6018
3878
0FC4
ENDCHAR
STARTCHAR 0052
ENCODING 82
SWIDTH 630 0
DWIDTH 14 0
BBX 11 16 2 0
BITMAP
FF00
8180
80C0
8040
8040
8040
8040
80C0
8180
FF00
8100
8180
8080
80C0
8040
8060
ENDCHAR
STARTCHAR 0053
ENCODING 83
SWIDTH 585 0
DWIDTH 13 0
BBX 12 16 1 0
BITMAP
1F00
71C0
4060
C020
C030
4000
7000
1E00
03C0
0060
0030
0030
8030
C020
70C0
1F80
ENDCHAR
STARTCHAR 0054
ENCODING 84
SWIDTH 585 0
DWIDTH 13 0
BBX 13 16 0 0
BITMAP
FFF8
0200
0200
0200
0200
0200
0200
0200
0200
0200
0200
0200
0200
0200
0200
0200
ENDCHAR
STARTCHAR 0055
ENCODING 85
SWIDTH 675 0
DWIDTH 15 0
BBX 12 16 2 0
BITMAP
8010
8010
8010
8010
8010
8010
8010
8010
8010
8010
8010
8030
C020
4060
71C0
1F00
ENDCHAR
STARTCHAR 0056
ENCODING 86
SWIDTH 585 0
DWIDTH 13 0
BBX 13 16 0 0
BITMAP
C018
4010
4010
6030
2020
2020
3060
1040
1040
18C0
0880
0C80
0580
0500
0700
0300
ENDCHAR
STARTCHAR 0057
ENCODING 87
SWIDTH 945 0
DWIDTH 21 0
BBX 19 16 1 0
BITMAP
80C020
80C060
80E040
C0A040
41A0C0
412080
613080
231080
221180
221900
320900
160B00
140A00
1C0E00
0C0600
080600
ENDCHAR
STARTCHAR 0058
ENCODING 88
SWIDTH 585 0
DWIDTH 13 0
BBX 12 16 1 0
BITMAP
8020
C060
60C0
2080
3180
1B00
0A00
0600
0E00
0A00
1100
3180
2080
4040
C060
8030
ENDCHAR
STARTCHAR 0059
ENCODING 89
SWIDTH 540 0
DWIDTH 12 0
BBX 12 16 0 0
BITMAP
C030
4020
6040
20C0
1080
1980
0900
0F00
0600
0600
0600
0600
0600
0600
0600
0600
ENDCHAR
STARTCHAR 005A
ENCODING 90
SWIDTH 585 0
DWIDTH 13 0
BBX 11 16 1 0
BITMAP
FFE0
0040
00C0
0080
0180
0300
0200
0600
0400
0800
1800
1000
3000
6000
4000
FFE0
ENDCHAR
STARTCHAR 005B
ENCODING 91
SWIDTH 405 0
DWIDTH 9 0
BBX 4 25 3 -5
BITMAP
F0
80
80
80
80
80
80
80
80
80
80
80
80
80
80
80
80
80
80
80
80
80
80
80
F0
ENDCHAR
STARTCHAR 005C
ENCODING 92
SWIDTH 360 0
DWIDTH 8 0
BBX 6 16 1 0
BITMAP
C0
40
40
60
20
20
20
30
10
10
10
18
08
08
0C
0C
ENDCHAR
STARTCHAR 005D
ENCODING 93
SWIDTH 405 0
DWIDTH 9 0
BBX 4 25 2 -5
BITMAP
F0
10
10
10
10
10
10
10
10
10
10
10
10
10
10
10
10
10
10
10
10
10
10
10
F0
ENDCHAR
STARTCHAR 005E
ENCODING 94
SWIDTH 675 0
DWIDTH 15 0
BBX 9 6 3 10
BITMAP
0800
1C00
3600
6300
C180
8080
ENDCHAR
STARTCHAR 005F
ENCODING 95
SWIDTH 675 0
DWIDTH 15 0
BBX 15 1 0 -2
BITMAP
FFFE
ENDCHAR
STARTCHAR 0060
ENCODING 96
SWIDTH 495 0
DWIDTH 11 0
BBX 2 3 4 18
BITMAP
80
40
40
ENDCHAR
STARTCHAR 0061
ENCODING 97
SWIDTH 540 0
DWIDTH 12 0
BBX 10 12 1 0
BITMAP
1F00
7180
40C0
40C0
0040
0FC0
7040
C0C0
80C0
80C0
C340
3E40
ENDCHAR
STARTCHAR 0062
ENCODING 98
SWIDTH 585 0
DWIDTH 13 0
BBX 10 16 2 0
BITMAP
8000
8000
8000
8000
9E00
E380
C080
80C0
8040
8040
8040
8040
80C0
C080
E300
9E00
ENDCHAR
STARTCHAR 0063
ENCODING 99
SWIDTH 540 0
DWIDTH 12 0
BBX 10 12 1 0
BITMAP
1F00
7180
4040
C000
8000
8000
8000
8000
C000
4040
3180
1F00
ENDCHAR
STARTCHAR 0064
ENCODING 100
SWIDTH 585 0
DWIDTH 13 0
BBX 10 16 1 0
BITMAP
0040
0040
0040
0040
1E40
71C0
40C0
C040
8040
8040
8040
8040
C040
40C0
71C0
1E40
ENDCHAR
STARTCHAR 0065
ENCODING 101
SWIDTH 585 0
DWIDTH 13 0
BBX 11 12 1 0
BITMAP
1F00
7180
4040
C060
8020
FFE0
8000
8000
C040
4040
3180
1F00
ENDCHAR
STARTCHAR 0066
ENCODING 102
SWIDTH 360 0
DWIDTH 8 0
BBX 6 16 1 0
BITMAP
1C
30
20
20
FC
20
20
20
20
20
20
20
20
20
20
20
ENDCHAR
STARTCHAR 0067
ENCODING 103
SWIDTH 585 0
DWIDTH 13 0
BBX 10 17 1 -5
BITMAP
1E40
71C0
40C0
C040
8040
8040
8040
8040
C040
40C0
71C0
1E40
0040
0040
40C0
6180
3F00
ENDCHAR
STARTCHAR 0068
ENCODING 104
SWIDTH 585 0
DWIDTH 13 0
BBX 10 16 2 0
BITMAP
8000
8000
8000
8000
BE00
E300
C180
8080
80C0
80C0
80C0
80C0
80C0
80C0
80C0
80C0
ENDCHAR
STARTCHAR 0069
ENCODING 105
SWIDTH 225 0
DWIDTH 5 0
BBX 1 16 2 0
BITMAP
80
80
00
00
80
80
80
80
80
80
80
80
80
80
80
80
ENDCHAR
STARTCHAR 006A
ENCODING 106
SWIDTH 225 0
DWIDTH 5 0
BBX 4 21 0 -5
BITMAP
30
30
00
00
30
30
30
30
30
30
30
30
30
30
30
30
30
30
30
20
E0
ENDCHAR
STARTCHAR 006B
ENCODING 107
SWIDTH 495 0
DWIDTH 11 0
BBX 9 16 2 0
BITMAP
8000
8000
8000
8000
8300
8600
8C00
9800
B000
E000
E000
B000
9800
8C00
8200
8180
ENDCHAR
STARTCHAR 006C
ENCODING 108
SWIDTH 225 0
DWIDTH 5 0
BBX 1 16 2 0
BITMAP
80
80
80
80
80
80
80
80
80
80
80
80
80
80
80
80
ENDCHAR
STARTCHAR 006D
ENCODING 109
SWIDTH 810 0
DWIDTH 18 0
BBX 15 12 2 0
BITMAP
BC78
C68C
8306
8102
8102
8102
8102
8102
8102
8102
8102
8102
ENDCHAR
STARTCHAR 006E
ENCODING 110
SWIDTH 585 0
DWIDTH 13 0
BBX 10 12 2 0
BITMAP
BE00
E300
C180
8080
80C0
80C0
80C0
80C0
80C0
80C0
80C0
80C0
ENDCHAR
STARTCHAR 006F
ENCODING 111
SWIDTH 585 0
DWIDTH 13 0
BBX 11 12 1 0
BITMAP
1F00
3180
4040
C060
8020
8020
8020
8020
C060
4040
3180
1F00
ENDCHAR
STARTCHAR 0070
ENCODING 112
SWIDTH 585 0
DWIDTH 13 0
BBX 10 17 2 -5
BITMAP
9E00
E380
C080
80C0
8040
8040
8040
8040
80C0
C080
E300
9E00
8000
8000
8000
8000
8000
ENDCHAR
STARTCHAR 0071
ENCODING 113
SWIDTH 585 0
DWIDTH 13 0
BBX 10 17 1 -5
BITMAP
1E40
71C0
40C0
C040
8040
8040
8040
8040
C040
40C0
71C0
1E40
0040
0040
0040
0040
0040
ENDCHAR
STARTCHAR 0072
ENCODING 114
SWIDTH 360 0
DWIDTH 8 0
BBX 5 12 2 0
BITMAP
B8
E0
C0
80
80
80
80
80
80
80
80
80
ENDCHAR
STARTCHAR 0073
ENCODING 115
SWIDTH 540 0
DWIDTH 12 0
BBX 10 12 1 0
BITMAP
3E00
6380
C080
C080
6000
3C00
0780
0080
00C0
C0C0
6180
3F00
ENDCHAR
STARTCHAR 0074
ENCODING 116
SWIDTH 405 0
DWIDTH 9 0
BBX 8 15 0 0
BITMAP
10
10
10
FF
10
10
10
10
10
10
10
10
10
18
0F
ENDCHAR
STARTCHAR 0075
ENCODING 117
SWIDTH 585 0
DWIDTH 13 0
BBX 10 12 1 0
BITMAP
C040
C040
C040
C040
C040
C040
C040
C040
4040
40C0
31C0
1F40
ENDCHAR
STARTCHAR 0076
ENCODING 118
SWIDTH 495 0
DWIDTH 11 0
BBX 9 12 1 0
BITMAP
8080
8080
C180
4100
4100
6300
2200
2600
1400
1400
1C00
0800
ENDCHAR
STARTCHAR 0077
ENCODING 119
SWIDTH 765 0
DWIDTH 17 0
BBX 15 12 1 0
BITMAP
8102
8302
C286
4284
4684
44CC
6448
2C48
2878
3830
1830
1030
ENDCHAR
STARTCHAR 0078
ENCODING 120
SWIDTH 540 0
DWIDTH 12 0
BBX 10 12 1 0
BITMAP
80C0
4180
6100
3200
1600
0C00
0C00
1600
3300
6100
C080
80C0
ENDCHAR
STARTCHAR 0079
ENCODING 121
SWIDTH 495 0
DWIDTH 11 0
BBX 10 17 1 -5
BITMAP
80C0
8080
C080
4180
6100
2100
2300
3200
1200
1E00
0C00
0C00
0800
0800
1800
1000
1000
ENDCHAR
STARTCHAR 007A
ENCODING 122
SWIDTH 540 0
DWIDTH 12 0
BBX 10 12 1 0
BITMAP
FFC0
0180
0100
0200
0600
0C00
0800
1000
2000
6000
C000
FF80
ENDCHAR
STARTCHAR 007B
ENCODING 123
SWIDTH 405 0
DWIDTH 9 0
BBX 5 25 3 -5
BITMAP
38
20
60
60
60
60
60
60
60
60
60
40
80
40
60
60
60
60
60
60
60
60
60
20
38
ENDCHAR
STARTCHAR 007C
ENCODING 124
SWIDTH 225 0
DWIDTH 5 0
BBX 1 16 2 0
BITMAP
80
80
80
80
80
80
80
80
80
80
80
80
80
80
80
80
ENDCHAR
STARTCHAR 007D
ENCODING 125
SWIDTH 405 0
DWIDTH 9 0
BBX 5 25 1 -5
BITMAP
E0
30
30
30
30
30
30
30
30
30
10
10
08
10
10
30
30
30
30
30
30
30
30
30
E0
ENDCHAR
STARTCHAR 007E
ENCODING 126
SWIDTH 630 0
DWIDTH 14 0
BBX 9 4 3 5
BITMAP
E180
F980
8F80
8700
ENDCHAR
STARTCHAR 00A0
ENCODING 160
SWIDTH 180 0
DWIDTH 4 0
BBX 0 0 0 0
BITMAP
ENDCHAR
STARTCHAR 00A1
ENCODING 161
SWIDTH 315 0
DWIDTH 7 0
BBX 1 16 3 -4
BITMAP
80
80
00
00
80
80
80
80
80
80
80
80
80
80
80
80
ENDCHAR
STARTCHAR 00A2
ENCODING 162
SWIDTH 540 0
DWIDTH 12 0
BBX 10 17 1 -1
BITMAP
0400
0400
1F00
3180
40C0
C040
8000
8000
8000
8000
8000
C000
40C0
3180
1F00
0400
0400
ENDCHAR
STARTCHAR 00A3
ENCODING 163
SWIDTH 585 0
DWIDTH 13 0
BBX 11 16 1 0
BITMAP
0780
0CC0
1040
1060
1000
1000
1000
1000
FF00
1000
1000
1000
1000
1000
3000
FFE0
ENDCHAR
STARTCHAR 00A4
ENCODING 164
SWIDTH 630 0
DWIDTH 14 0
BBX 12 12 1 1
BITMAP
CF30
70E0
6060
4020
C030
8010
8010
C030
4020
6060
70E0
CF30
ENDCHAR
STARTCHAR 00A5
ENCODING 165
SWIDTH 540 0
DWIDTH 12 0
BBX 12 16 0 0
BITMAP
C030
4020
6040
30C0
1080
1980
0900
0F00
0600
3FC0
0600
0600
3FC0
0600
0600
0600
ENDCHAR
STARTCHAR 00A6
ENCODING 166
SWIDTH 225 0
DWIDTH 5 0
BBX 1 19 2 -3
BITMAP
80
80
80
80
80
80
80
80
00
00
00
80
80
80
80
80
80
80
80
ENDCHAR
STARTCHAR 00A7
ENCODING 167
SWIDTH 540 0
DWIDTH 12 0
BBX 10 17 1 -3
BITMAP
3E00
6300
C180
C000
6000
3E00
6380
C0C0
80C0
C0C0
3980
0700
0180
0080
C080
6180
3F00
ENDCHAR
STARTCHAR 00A8
ENCODING 168
SWIDTH 495 0
DWIDTH 11 0
BBX 5 2 3 18
BITMAP
88
88
ENDCHAR
STARTCHAR 00A9
ENCODING 169
SWIDTH 765 0
DWIDTH 17 0
BBX 16 15 1 0
BITMAP
0FE0
1838
200C
43C4
CC66
8822
8802
8803
8803
8802
CC62
47C4
600C
1838
0FE0
ENDCHAR
STARTCHAR 00AA
ENCODING 170
SWIDTH 315 0
DWIDTH 7 0
BBX 5 6 1 6
BITMAP
70
88
38
C8
88
F8
ENDCHAR
STARTCHAR 00AB
ENCODING 171
SWIDTH 540 0
DWIDTH 12 0
BBX 8 9 2 1
BITMAP
11
32
26
4C
88
C8
44
26
13
ENDCHAR
STARTCHAR 00AC
ENCODING 172
SWIDTH 585 0
DWIDTH 13 0
BBX 11 4 1 4
BITMAP
FFE0
0020
0020
0020
ENDCHAR
STARTCHAR 00AD
ENCODING 173
SWIDTH 405 0
DWIDTH 9 0
BBX 7 1 1 7
BITMAP
FE
ENDCHAR
STARTCHAR 00AE
ENCODING 174
SWIDTH 630 0
DWIDTH 14 0
BBX 10 10 2 7
BITMAP
1E00
6300
C080
9C40
9240
9E40
9440
92C0
6180
3E00
ENDCHAR
STARTCHAR 00AF
ENCODING 175
SWIDTH 495 0
DWIDTH 11 0
BBX 5 1 3 19
BITMAP
F8
ENDCHAR
STARTCHAR 00B0
ENCODING 176
SWIDTH 450 0
DWIDTH 10 0
BBX 8 8 1 8
BITMAP
3C
46
82
83
83
82
46
3C
ENDCHAR
STARTCHAR 00B1
ENCODING 177
SWIDTH 585 0
DWIDTH 13 0
BBX 11 10 1 2
BITMAP
0400
0400
0400
FFE0
0400
0400
0400
0000
0000
FFE0
ENDCHAR
STARTCHAR 00B2
ENCODING 178
SWIDTH 405 0
DWIDTH 9 0
BBX 7 10 1 6
BITMAP
38
44
86
02
04
0C
18
20
40
FE
ENDCHAR
STARTCHAR 00B3
ENCODING 179
SWIDTH 405 0
DWIDTH 9 0
BBX 6 10 1 6
BITMAP
FC
0C
18
30
78
04
04
04
8C
78
ENDCHAR
STARTCHAR 00B4
ENCODING 180
SWIDTH 495 0
DWIDTH 11 0
BBX 2 3 4 18
BITMAP
40
40
C0
ENDCHAR
STARTCHAR 00B5
ENCODING 181
SWIDTH 585 0
DWIDTH 13 0
BBX 10 17 2 -5
BITMAP
80C0
80C0
80C0
80C0
80C0
80C0
80C0
80C0
80C0
C1C0
E3C0
BEC0
8000
8000
8000
8000
8000
ENDCHAR
STARTCHAR 00B6
ENCODING 182
SWIDTH 630 0
DWIDTH 14 0
BBX 10 19 2 -3
BITMAP
3EC0
7EC0
FEC0
FEC0
FEC0
FEC0
FEC0
FEC0
7EC0
1EC0
02C0
02C0
02C0
02C0
02C0
02C0
02C0
02C0
02C0
ENDCHAR
STARTCHAR 00B7
ENCODING 183
SWIDTH 225 0
DWIDTH 5 0
BBX 2 2 1 6
BITMAP
C0
C0
ENDCHAR
STARTCHAR 00B8
ENCODING 184
SWIDTH 405 0
DWIDTH 9 0
BBX 3 5 3 -5
BITMAP
40
40
20
20
C0
ENDCHAR
STARTCHAR 00B9
ENCODING 185
SWIDTH 315 0
DWIDTH 7 0
BBX 3 10 1 6
BITMAP
60
E0
20
20
20
20
20
20
20
20
ENDCHAR
STARTCHAR 00BA
ENCODING 186
SWIDTH 360 0
DWIDTH 8 0
BBX 6 6 1 6
BITMAP
78
C8
84
84
C8
78
ENDCHAR
STARTCHAR 00BB
ENCODING 187
SWIDTH 540 0
DWIDTH 12 0
BBX 8 9 2 1
BITMAP
90
C8
44
26
13
32
64
4C
98
ENDCHAR
STARTCHAR 00BC
ENCODING 188
SWIDTH 945 0
DWIDTH 21 0
BBX 17 16 1 0
BITMAP
600400
E00C00
200800
201000
203000
206000
204200
208600
218400
230C00
060900
041900
081100
181F80
300100
200100
ENDCHAR
STARTCHAR 00BD
ENCODING 189
SWIDTH 900 0
DWIDTH 20 0
BBX 18 16 1 0
BITMAP
600400
E00C00
200800
201000
203000
206000
204780
2088C0
218840
230040
060040
040180
080300
180600
300C00
201FC0
ENDCHAR
STARTCHAR 00BE
ENCODING 190
SWIDTH 945 0
DWIDTH 21 0
BBX 19 16 1 0
BITMAP
FC0100
0C0300
180600
300C00
780800
041000
043180
046100
8C4300
788200
018640
030440
060C40
040FE0
080040
080040
ENDCHAR
STARTCHAR 00BF
ENCODING 191
SWIDTH 495 0
DWIDTH 11 0
BBX 9 16 1 -4
BITMAP
0C00
0C00
0000
0000
0C00
0C00
0800
1800
3000
6000
C000
C000
8080
C080
6180
3F00
ENDCHAR
STARTCHAR 00C0
ENCODING 192
SWIDTH 630 0
DWIDTH 14 0
BBX 12 21 1 0
BITMAP
0800
0400
0400
0000
0000
0600
0600
0F00
0900
0900
1980
1080
3080
20C0
2040
6040
7FE0
4020
C020
8030
8010
ENDCHAR
STARTCHAR 00C1
ENCODING 193
SWIDTH 630 0
DWIDTH 14 0
BBX 12 21 1 0
BITMAP
0300
0200
0200
0000
0000
0600
0600
0F00
0900
0900
1180
1080
3080
20C0
2040
6040
7FE0
4020
C020
8030
8010
ENDCHAR
STARTCHAR 00C2
ENCODING 194
SWIDTH 630 0
DWIDTH 14 0
BBX 12 21 1 0
BITMAP
0600
0B00
1900
0000
0000
0600
0600
0F00
0900
0900
1180
1080
3080
20C0
2040
6040
7FE0
4020
C020
8030
8010
ENDCHAR
STARTCHAR 00C3
ENCODING 195
SWIDTH 630 0
DWIDTH 14 0
BBX 12 21 1 0
BITMAP
1880
1680
1380
0000
0000
0600
0600
0F00
0900
0900
1180
1080
3080
20C0
2040
6040
7FE0
4020
C020
8030
8010
ENDCHAR
STARTCHAR 00C4
ENCODING 196
SWIDTH 630 0
DWIDTH 14 0
BBX 12 20 1 0
BITMAP
1980
1980
0000
0000
0600
0600
0F00
0900
0900
1180
1080
3080
20C0
2040
6040
7FE0
4020
C020
8030
8010
ENDCHAR
STARTCHAR 00C5
ENCODING 197
SWIDTH 630 0
DWIDTH 14 0
BBX 12 22 1 0
BITMAP
0600
0900
0900
0900
0E00
0000
0600
0600
0F00
0900
0900
1180
1080
3080
20C0
2040
6040
7FE0
4020
C020
8030
8010
ENDCHAR
STARTCHAR 00C6
ENCODING 198
SWIDTH 900 0
DWIDTH 20 0
BBX 18 16 1 0
BITMAP
07FFC0
04C000
0CC000
08C000
08C000
18C000
10C000
30FF80
20C000
20C000
60C000
7FC000
40C000
C0C000
80C000
80FFC0
ENDCHAR
STARTCHAR 00C7
ENCODING 199
SWIDTH 720 0
DWIDTH 16 0
BBX 14 21 1 -5
BITMAP
0FC0
3870
6018
4008
C00C
8000
8000
8000
8000
8000
8000
C00C
4008
6018
3870
0FC0
0100
0300
0080
0080
0700
ENDCHAR
STARTCHAR 00C8
ENCODING 200
SWIDTH 585 0
DWIDTH 13 0
BBX 9 21 2 0
BITMAP
1800
0800
0800
0000
0000
FF80
8000
8000
8000
8000
8000
8000
FF00
8000
8000
8000
8000
8000
8000
8000
FF80
ENDCHAR
STARTCHAR 00C9
ENCODING 201
SWIDTH 585 0
DWIDTH 13 0
BBX 9 21 2 0
BITMAP
0400
0400
0C00
0000
0000
FF80
8000
8000
8000
8000
8000
8000
FF00
8000
8000
8000
8000
8000
8000
8000
FF80
ENDCHAR
STARTCHAR 00CA
ENCODING 202
SWIDTH 585 0
DWIDTH 13 0
BBX 9 21 2 0
BITMAP
1800
1400
2200
0000
0000
FF80
8000
8000
8000
8000
8000
8000
FF00
8000
8000
8000
8000
8000
8000
8000
FF80
ENDCHAR
STARTCHAR 00CB
ENCODING 203
SWIDTH 585 0
DWIDTH 13 0
BBX 9 20 2 0
BITMAP
6600
6600
0000
0000
FF80
8000
8000
8000
8000
8000
8000
FF00
8000
8000
8000
8000
8000
8000
8000
FF80
ENDCHAR
STARTCHAR 00CC
ENCODING 204
SWIDTH 225 0
DWIDTH 5 0
BBX 2 21 1 0
BITMAP
80
80
40
00
00
40
40
40
40
40
40
40
40
40
40
40
40
40
40
40
40
ENDCHAR
STARTCHAR 00CD
ENCODING 205
SWIDTH 225 0
DWIDTH 5 0
BBX 2 21 2 0
BITMAP
40
C0
80
00
00
80
80
80
80
80
80
80
80
80
80
80
80
80
80
80
80
ENDCHAR
STARTCHAR 00CE
ENCODING 206
SWIDTH 225 0
DWIDTH 5 0
BBX 5 21 0 0
BITMAP
60
50
88
00
00
20
20
20
20
20
20
20
20
20
20
20
20
20
20
20
20
ENDCHAR
STARTCHAR 00CF
ENCODING 207
SWIDTH 225 0
DWIDTH 5 0
BBX 5 20 0 0
BITMAP
88
88
00
00
20
20
20
20
20
20
20
20
20
20
20
20
20
20
20
20
ENDCHAR
STARTCHAR 00D0
ENCODING 208
SWIDTH 675 0
DWIDTH 15 0
BBX 14 16 0 0
BITMAP
7FC0
6060
6030
6018
6008
6008
600C
FE0C
600C
6008
6008
6008
6018
6030
6060
7FC0
ENDCHAR
STARTCHAR 00D1
ENCODING 209
SWIDTH 675 0
DWIDTH 15 0
BBX 11 21 2 0
BITMAP
1880
1680
1380
0000
0000
8020
C020
E020
A020
B020
9820
8820
8C20
8620
8220
8320
81A0
80A0
80E0
8060
8020
ENDCHAR
STARTCHAR 00D2
ENCODING 210
SWIDTH 720 0
DWIDTH 16 0
BBX 14 21 1 0
BITMAP
0600
0200
0200
0000
0000
0FC0
3870
6018
4008
C00C
8004
8004
8004
8004
8004
8004
C00C
4008
6018
3870
0FC0
ENDCHAR
STARTCHAR 00D3
ENCODING 211
SWIDTH 720 0
DWIDTH 16 0
BBX 14 21 1 0
BITMAP
0080
0100
0100
0000
0000
0FC0
3870
6018
4008
C00C
8004
8004
8004
8004
8004
8004
C00C
4008
6018
3870
0FC0
ENDCHAR
STARTCHAR 00D4
ENCODING 212
SWIDTH 720 0
DWIDTH 16 0
BBX 14 20 1 0
BITMAP
0300
0480
0800
0000
0FC0
3870
6018
4008
C00C
8004
8004
8004
8004
8004
8004
C00C
4008
6018
3870
0FC0
ENDCHAR
STARTCHAR 00D5
ENCODING 213
SWIDTH 720 0
DWIDTH 16 0
BBX 14 20 1 0
BITMAP
0E40
0B40
08C0
0000
0FC0
3870
6018
4008
C00C
8004
8004
8004
8004
8004
8004
C00C
4008
6018
3870
0FC0
ENDCHAR
STARTCHAR 00D6
ENCODING 214
SWIDTH 720 0
DWIDTH 16 0
BBX 14 20 1 0
BITMAP
0CC0
0CC0
0000
0000
0FC0
3870
6018
4008
C00C
8004
8004
8004
8004
8004
8004
C00C
4008
6018
3870
0FC0
ENDCHAR
STARTCHAR 00D7
ENCODING 215
SWIDTH 495 0
DWIDTH 11 0
BBX 7 8 2 4
BITMAP
82
C6
6C
38
38
6C
C6
82
ENDCHAR
STARTCHAR 00D8
ENCODING 216
SWIDTH 720 0
DWIDTH 16 0
BBX 14 16 1 0
BITMAP
0FC4
387C
6018
4018
C02C
8044
8084
8104
8204
8404
8804
D00C
6008
6018
F870
8FC0
ENDCHAR
STARTCHAR 00D9
ENCODING 217
SWIDTH 675 0
DWIDTH 15 0
BBX 12 21 2 0
BITMAP
0C00
0400
0400
0000
0000
8010
8010
8010
8010
8010
8010
8010
8010
8010
8010
8010
8030
C020
4060
71C0
1F00
ENDCHAR
STARTCHAR 00DA
ENCODING 218
SWIDTH 675 0
DWIDTH 15 0
BBX 12 21 2 0
BITMAP
0200
0600
0400
0000
0000
8010
8010
8010
8010
8010
8010
8010
8010
8010
8010
8010
8030
C020
4060
71C0
1F00
ENDCHAR
STARTCHAR 00DB
ENCODING 219
SWIDTH 675 0
DWIDTH 15 0
BBX 12 21 2 0
BITMAP
0600
0B00
1100
0000
0000
8010
8010
8010
8010
8010
8010
8010
8010
8010
8010
8010
8030
C020
4060
71C0
1F00
ENDCHAR
STARTCHAR 00DC
ENCODING 220
SWIDTH 675 0
DWIDTH 15 0
BBX 12 20 2 0
BITMAP
1180
1180
0000
0000
8010
8010
8010
8010
8010
8010
8010
8010
8010
8010
8010
8030
C020
4060
71C0
1F00
ENDCHAR
STARTCHAR 00DD
ENCODING 221
SWIDTH 540 0
DWIDTH 12 0
BBX 12 21 0 0
BITMAP
0200
0200
0600
0000
0000
C030
4020
6040
20C0
1080
1980
0900
0F00
0600
0600
0600
0600
0600
0600
0600
0600
ENDCHAR
STARTCHAR 00DE
ENCODING 222
SWIDTH 585 0
DWIDTH 13 0
BBX 10 16 2 0
BITMAP
8000
8000
8000
FF00
8180
80C0
8040
8040
8040
8040
80C0
8180
FF00
8000
8000
8000
ENDCHAR
STARTCHAR 00DF
ENCODING 223
SWIDTH 585 0
DWIDTH 13 0
BBX 10 16 2 0
BITMAP
3C00
E600
8300
8100
8100
8100
8300
8E00
8300
8080
80C0
80C0
80C0
8080
8380
9E00
ENDCHAR
STARTCHAR 00E0
ENCODING 224
SWIDTH 540 0
DWIDTH 12 0
BBX 10 17 1 0
BITMAP
0800
0800
0C00
0000
0000
1F00
7180
40C0
40C0
0040
0FC0
7040
C0C0
80C0
80C0
C340
3E40
ENDCHAR
STARTCHAR 00E1
ENCODING 225
SWIDTH 540 0
DWIDTH 12 0
BBX 10 17 1 0
BITMAP
0200
0400
0400
0000
0000
1F00
7180
40C0
40C0
0040
0FC0
7040
C0C0
80C0
80C0
C340
3E40
ENDCHAR
STARTCHAR 00E2
ENCODING 226
SWIDTH 540 0
DWIDTH 12 0
BBX 10 16 1 0
BITMAP
0C00
1300
0000
0000
1F00
7180
40C0
40C0
0040
0FC0
7040
C0C0
80C0
80C0
C340
3E40
ENDCHAR
STARTCHAR 00E3
ENCODING 227
SWIDTH 540 0
DWIDTH 12 0
BBX 10 16 1 0
BITMAP
1880
2580
2300
0000
1F00
7180
40C0
40C0
0040
0FC0
7040
C0C0
80C0
80C0
C340
3E40
ENDCHAR
STARTCHAR 00E4
ENCODING 228
SWIDTH 540 0
DWIDTH 12 0
BBX 10 16 1 0
BITMAP
1100
1100
0000
0000
1F00
7180
40C0
40C0
0040
0FC0
7040
C0C0
80C0
80C0
C340
3E40
ENDCHAR
STARTCHAR 00E5
ENCODING 229
SWIDTH 540 0
DWIDTH 12 0
BBX 10 18 1 0
BITMAP
0E00
1200
1300
1200
0E00
0000
1F00
7180
40C0
40C0
0040
0FC0
7040
C0C0
80C0
80C0
C340
3E40
ENDCHAR
STARTCHAR 00E6
ENCODING 230
SWIDTH 945 0
DWIDTH 21 0
BBX 19 12 1 0
BITMAP
1F0F00
61B0C0
40E040
00C060
004020
3FFFE0
604000
80C000
80C000
81E040
C331C0
3E0F00
ENDCHAR
STARTCHAR 00E7
ENCODING 231
SWIDTH 540 0
DWIDTH 12 0
BBX 10 17 1 -5
BITMAP
1F00
3180
4040
C000
8000
8000
8000
8000
C000
4040
7180
1F00
0400
0C00
0200
0200
0C00
ENDCHAR
STARTCHAR 00E8
ENCODING 232
SWIDTH 585 0
DWIDTH 13 0
BBX 11 17 1 0
BITMAP
0800
0C00
0400
0000
0000
1F00
7180
4040
C060
8020
FFE0
8000
8000
C040
4040
3180
1F00
ENDCHAR
STARTCHAR 00E9
ENCODING 233
SWIDTH 585 0
DWIDTH 13 0
BBX 11 17 1 0
BITMAP
0200
0200
0600
0000
0000
1F00
7180
4040
C060
8020
FFE0
8000
8000
C040
4040
3180
1F00
ENDCHAR
STARTCHAR 00EA
ENCODING 234
SWIDTH 585 0
DWIDTH 13 0
BBX 11 16 1 0
BITMAP
0E00
1B00
1000
0000
1F00
7180
4040
C060
8020
FFE0
8000
8000
C040
4040
3180
1F00
ENDCHAR
STARTCHAR 00EB
ENCODING 235
SWIDTH 585 0
DWIDTH 13 0
BBX 11 16 1 0
BITMAP
1100
1100
0000
0000
1F00
7180
4040
C060
8020
FFE0
8000
8000
C040
4040
3180
1F00
ENDCHAR
STARTCHAR 00EC
ENCODING 236
SWIDTH 225 0
DWIDTH 5 0
BBX 2 17 1 0
BITMAP
80
80
40
00
00
40
40
40
40
40
40
40
40
40
40
40
40
ENDCHAR
STARTCHAR 00ED
ENCODING 237
SWIDTH 225 0
DWIDTH 5 0
BBX 2 17 2 0
BITMAP
40
C0
80
00
00
80
80
80
80
80
80
80
80
80
80
80
80
ENDCHAR
STARTCHAR 00EE
ENCODING 238
SWIDTH 225 0
DWIDTH 5 0
BBX 5 17 0 0
BITMAP
60
50
88
00
00
20
20
20
20
20
20
20
20
20
20
20
20
ENDCHAR
STARTCHAR 00EF
ENCODING 239
SWIDTH 225 0
DWIDTH 5 0
BBX 5 16 0 0
BITMAP
88
88
00
00
20
20
20
20
20
20
20
20
20
20
20
20
ENDCHAR
STARTCHAR 00F0
ENCODING 240
SWIDTH 585 0
DWIDTH 13 0
BBX 11 18 1 0
BITMAP
0080
0F00
0300
0780
04C0
0040
1F60
71A0
4060
C060
8060
8020
8020
8060
C060
4040
7180
1F00
ENDCHAR
STARTCHAR 00F1
ENCODING 241
SWIDTH 585 0
DWIDTH 13 0
BBX 10 16 2 0
BITMAP
3100
4900
4600
0000
BE00
E300
C180
8080
80C0
80C0
80C0
80C0
80C0
80C0
80C0
80C0
ENDCHAR
STARTCHAR 00F2
ENCODING 242
SWIDTH 585 0
DWIDTH 13 0
BBX 11 17 1 0
BITMAP
0800
0800
0400
0000
0000
1F00
3180
4040
C060
8020
8020
8020
8020
C060
4040
3180
1F00
ENDCHAR
STARTCHAR 00F3
ENCODING 243
SWIDTH 585 0
DWIDTH 13 0
BBX 11 17 1 0
BITMAP
0200
0200
0400
0000
0000
1F00
3180
4040
C060
8020
8020
8020
8020
C060
4040
3180
1F00
ENDCHAR
STARTCHAR 00F4
ENCODING 244
SWIDTH 585 0
DWIDTH 13 0
BBX 11 16 1 0
BITMAP
0E00
1B00
1000
0000
1F00
3180
4040
C060
8020
8020
8020
8020
C060
4040
3180
1F00
ENDCHAR
STARTCHAR 00F5
ENCODING 245
SWIDTH 585 0
DWIDTH 13 0
BBX 11 16 1 0
BITMAP
1880
2480
2300
0000
1F00
3180
4040
C060
8020
8020
8020
8020
C060
4040
3180
1F00
ENDCHAR
STARTCHAR 00F6
ENCODING 246
SWIDTH 585 0
DWIDTH 13 0
BBX 11 16 1 0
BITMAP
1100
1100
0000
0000
1F00
3180
4040
C060
8020
8020
8020
8020
C060
4040
3180
1F00
ENDCHAR
STARTCHAR 00F7
ENCODING 247
SWIDTH 540 0
DWIDTH 12 0
BBX 10 8 1 4
BITMAP
0C00
0C00
0000
FFC0
0000
0000
0C00
0C00
ENDCHAR
STARTCHAR 00F8
ENCODING 248
SWIDTH 585 0
DWIDTH 13 0
BBX 11 12 1 0
BITMAP
1F20
31E0
40C0
C1E0
8320
8620
8C20
9820
F060
6040
F180
9F00
ENDCHAR
STARTCHAR 00F9
ENCODING 249
SWIDTH 585 0
DWIDTH 13 0
BBX 10 17 1 0
BITMAP
0800
0C00
0400
0000
0000
C040
C040
C040
C040
C040
C040
C040
C040
4040
40C0
31C0
1F40
ENDCHAR
STARTCHAR 00FA
ENCODING 250
SWIDTH 585 0
DWIDTH 13 0
BBX 10 17 1 0
BITMAP
0200
0400
0400
0000
0000
C040
C040
C040
C040
C040
C040
C040
C040
4040
40C0
31C0
1F40
ENDCHAR
STARTCHAR 00FB
ENCODING 251
SWIDTH 585 0
DWIDTH 13 0
BBX 10 17 1 0
BITMAP
0C00
0A00
1100
0000
0000
C040
C040
C040
C040
C040
C040
C040
C040
4040
40C0
31C0
1F40
ENDCHAR
STARTCHAR 00FC
ENCODING 252
SWIDTH 585 0
DWIDTH 13 0
BBX 10 16 1 0
BITMAP
1100
1100
0000
0000
C040
C040
C040
C040
C040
C040
C040
C040
4040
40C0
31C0
1F40
ENDCHAR
STARTCHAR 00FD
ENCODING 253
SWIDTH 495 0
DWIDTH 11 0
BBX 10 22 1 -5
BITMAP
0400
0400
0800
0000
0000
80C0
8080
C080
4180
6100
2100
2300
3200
1200
1E00
0C00
0C00
0800
0800
1800
1000
1000
ENDCHAR
STARTCHAR 00FE
ENCODING 254
SWIDTH 585 0
DWIDTH 13 0
BBX 10 21 2 -5
BITMAP
8000
8000
8000
8000
9E00
E380
C080
80C0
8040
8040
8040
8040
80C0
C080
E300
9E00
8000
8000
8000
8000
8000
ENDCHAR
STARTCHAR 00FF
ENCODING 255
SWIDTH 495 0
DWIDTH 11 0
BBX 10 21 1 -5
BITMAP
3300
3300
0000
0000
80C0
8080
C080
4180
6100
2100
2300
3200
1200
1E00
0C00
0C00
0800
0800
1800
1000
1000
ENDCHAR
ENDFONT
